{
	"asset":{
		"generator":"Khronos glTF Blender I/O v5.0.21",
		"version":"2.0"
	},
	"scene":0,
	"scenes":[
		{
			"name":"Scene",
			"nodes":[
				0
			]
		}
	],
	"nodes":[
		{
			"mesh":0,
			"name":"House",
			"rotation":[
				0.7071068286895752,
				0,
				0,
				0.7071068286895752
			],
			"scale":[
				0.008337339386343956,
				0.008337339386343956,
				0.008337339386343956
			],
			"translation":[
				-2.003542423248291,
				0.8449354767799377,
				1.7441692352294922
			]
		}
	],
	"materials":[
		{
			"doubleSided":true,
			"name":"Facade.001",
			"pbrMetallicRoughness":{
				"baseColorTexture":{
					"index":0
				},
				"metallicFactor":0
			}
		}
	],
	"meshes":[
		{
			"name":"Cube.001",
			"primitives":[
				{
					"attributes":{
						"POSITION":0,
						"NORMAL":1,
						"TEXCOORD_0":2
					},
					"indices":3,
					"material":0
				}
			]
		}
	],
	"textures":[
		{
			"sampler":0,
			"source":0
		}
	],
	"images":[
		{
			"mimeType":"image/png",
			"name":"Facade",
			"uri":"testBuilding/Facade.png"
		}
	],
	"accessors":[
		{
			"bufferView":0,
			"componentType":5126,
			"count":1259,
			"max":[
				688.0701293945312,
				113.10704040527344,
				100
			],
			"min":[
				-112.38178253173828,
				-508.7552185058594,
				-656.0061645507812
			],
			"type":"VEC3"
		},
		{
			"bufferView":1,
			"componentType":5126,
			"count":1259,
			"type":"VEC3"
		},
		{
			"bufferView":2,
			"componentType":5126,
			"count":1259,
			"type":"VEC2"
		},
		{
			"bufferView":3,
			"componentType":5123,
			"count":2358,
			"type":"SCALAR"
		}
	],
	"bufferViews":[
		{
			"buffer":0,
			"byteLength":15108,
			"byteOffset":0,
			"target":34962
		},
		{
			"buffer":0,
			"byteLength":15108,
			"byteOffset":15108,
			"target":34962
		},
		{
			"buffer":0,
			"byteLength":10072,
			"byteOffset":30216,
			"target":34962
		},
		{
			"buffer":0,
			"byteLength":4716,
			"byteOffset":40288,
			"target":34963
		}
	],
	"samplers":[
		{
			"magFilter":9729,
			"minFilter":9987
		}
	],
	"buffers":[
		{
			"byteLength":45004,
			"uri":"testBuilding.bin"
		}
	]
}
